<?xml version="1.0" standalone="no"?>
<!DOCTYPE svg PUBLIC "-//W3C//DTD SVG 20010904//EN"
 "http://www.w3.org/TR/2001/REC-SVG-20010904/DTD/svg10.dtd">
<svg version="1.0" xmlns="http://www.w3.org/2000/svg"
 width="3001.000000pt" height="3001.000000pt" viewBox="0 0 3001.000000 3001.000000"
 preserveAspectRatio="xMidYMid meet">
<metadata>
Created by potrace 1.14, written by Peter Selinger 2001-2017
</metadata>
<g transform="translate(0.000000,3001.000000) scale(0.100000,-0.100000)"
fill="#000000" stroke="none">
<path d="M14468 30005 c-2 -2 -70 -6 -153 -9 -82 -4 -177 -9 -210 -11 -33 -2
-100 -7 -150 -10 -49 -3 -110 -7 -135 -10 -25 -2 -76 -7 -115 -10 -38 -3 -97
-8 -130 -11 -33 -3 -76 -7 -95 -9 -44 -4 -130 -13 -195 -22 -27 -4 -53 -6 -56
-5 -4 1 -34 -3 -67 -8 -33 -6 -84 -12 -113 -15 -30 -3 -81 -10 -114 -15 -33
-5 -80 -12 -105 -15 -25 -3 -56 -8 -70 -10 -99 -16 -229 -36 -250 -40 -14 -2
-41 -7 -60 -10 -83 -13 -161 -28 -255 -46 -55 -11 -111 -22 -125 -25 -14 -2
-48 -9 -76 -15 -28 -5 -64 -12 -80 -15 -16 -3 -47 -10 -69 -16 -22 -5 -51 -12
-65 -14 -14 -3 -54 -12 -90 -20 -36 -9 -76 -18 -90 -21 -14 -2 -70 -15 -125
-29 -55 -14 -118 -29 -140 -34 -22 -5 -92 -23 -155 -40 -63 -17 -123 -33 -132
-35 -9 -2 -41 -11 -70 -19 -29 -9 -138 -41 -243 -72 -262 -77 -417 -127 -825
-269 -25 -8 -61 -22 -80 -30 -19 -7 -80 -30 -135 -50 -55 -20 -109 -41 -120
-46 -11 -4 -56 -22 -100 -39 -44 -17 -89 -35 -100 -40 -11 -5 -108 -46 -215
-91 -775 -327 -1558 -740 -2270 -1199 -134 -86 -534 -357 -582 -394 -15 -12
-42 -31 -60 -44 -37 -26 -482 -359 -513 -384 -11 -9 -83 -67 -160 -129 -77
-63 -145 -118 -151 -124 -6 -5 -33 -28 -60 -50 -26 -22 -69 -58 -94 -80 -25
-22 -70 -60 -99 -85 -29 -25 -63 -54 -75 -65 -12 -11 -55 -49 -95 -85 -85 -75
-82 -73 -272 -250 -289 -271 -728 -721 -920 -945 -19 -21 -41 -46 -49 -55 -28
-31 -95 -107 -140 -160 -25 -29 -54 -63 -65 -76 -36 -39 -221 -266 -310 -379
-48 -60 -99 -126 -115 -145 -15 -19 -60 -78 -99 -130 -39 -52 -81 -108 -93
-124 -13 -16 -36 -48 -53 -72 -16 -23 -68 -95 -115 -161 -330 -461 -729 -1100
-949 -1518 -18 -33 -53 -98 -78 -145 -62 -116 -273 -537 -318 -635 -111 -241
-189 -416 -245 -550 -34 -82 -68 -163 -76 -180 -7 -16 -34 -84 -59 -150 -25
-66 -49 -129 -55 -140 -11 -24 -65 -172 -127 -345 -62 -174 -183 -546 -237
-725 -74 -249 -197 -712 -222 -835 -3 -14 -14 -61 -24 -105 -24 -99 -77 -348
-85 -395 -3 -19 -8 -42 -10 -50 -2 -8 -7 -28 -9 -45 -3 -16 -10 -55 -16 -85
-6 -30 -13 -64 -14 -75 -2 -11 -6 -33 -9 -50 -7 -32 -13 -66 -22 -130 -4 -22
-8 -47 -10 -55 -2 -8 -7 -37 -11 -65 -3 -27 -8 -59 -10 -70 -2 -10 -6 -37 -9
-60 -4 -22 -8 -53 -11 -70 -11 -65 -21 -139 -29 -205 -3 -25 -10 -76 -15 -115
-9 -67 -18 -140 -25 -215 -5 -41 -12 -114 -20 -186 -7 -60 -11 -108 -20 -229
-4 -49 -8 -110 -10 -135 -4 -41 -9 -116 -20 -295 -25 -397 -25 -1191 0 -1650
7 -136 16 -268 20 -310 2 -22 7 -78 10 -125 3 -47 8 -101 10 -120 3 -19 7 -64
10 -100 3 -36 7 -81 10 -100 2 -19 7 -64 11 -100 3 -36 8 -73 9 -82 2 -9 6
-43 9 -75 4 -32 9 -76 12 -98 8 -57 11 -83 19 -145 4 -30 9 -64 11 -75 2 -11
6 -40 10 -65 3 -25 10 -72 16 -105 5 -33 12 -72 14 -87 2 -16 6 -40 8 -55 5
-30 33 -194 41 -233 5 -23 21 -113 32 -170 2 -14 11 -59 20 -100 8 -41 17 -84
19 -95 6 -34 11 -54 48 -220 49 -220 107 -454 151 -614 20 -74 38 -142 40
-150 27 -122 296 -962 320 -1001 3 -6 8 -18 10 -27 14 -72 277 -727 410 -1023
46 -103 60 -134 125 -275 100 -218 337 -679 495 -960 133 -239 404 -684 521
-859 10 -16 24 -36 29 -45 6 -9 24 -36 40 -60 17 -24 35 -52 41 -62 6 -11 18
-27 27 -37 10 -10 17 -22 17 -26 0 -4 5 -12 10 -19 6 -7 67 -93 137 -192 130
-186 256 -358 352 -481 31 -40 65 -84 76 -100 11 -15 25 -32 30 -38 6 -6 26
-31 45 -56 19 -25 37 -47 40 -50 3 -3 41 -50 85 -105 44 -55 82 -102 85 -105
3 -3 28 -32 55 -65 113 -136 326 -379 425 -485 14 -15 77 -83 140 -151 201
-216 555 -565 809 -799 67 -62 197 -177 224 -200 17 -14 40 -34 51 -45 24 -24
324 -276 380 -320 21 -16 48 -38 60 -49 11 -10 37 -30 56 -45 19 -14 41 -32
49 -39 50 -47 511 -388 806 -596 129 -91 616 -406 720 -466 17 -10 99 -59 183
-109 84 -50 154 -91 156 -91 2 0 43 -23 92 -51 654 -377 1644 -827 2354 -1069
36 -12 74 -26 85 -30 62 -26 612 -200 760 -241 39 -10 104 -28 145 -40 41 -11
109 -30 150 -41 41 -11 92 -25 113 -29 20 -5 54 -13 75 -18 245 -61 630 -147
782 -175 27 -5 120 -23 160 -31 54 -11 378 -65 420 -70 25 -3 70 -9 100 -15
77 -13 266 -39 330 -45 14 -2 45 -5 70 -9 25 -3 72 -8 105 -11 33 -4 71 -8 85
-10 14 -2 57 -7 95 -10 39 -4 82 -8 96 -10 15 -2 71 -6 125 -10 55 -4 107 -9
116 -10 9 -2 70 -7 135 -10 65 -4 134 -8 153 -10 280 -27 1373 -27 1795 0 180
12 374 26 410 30 17 2 66 6 110 9 44 4 94 9 110 11 17 2 57 7 90 10 33 3 74 8
90 10 17 2 57 7 90 10 33 3 72 8 87 11 15 3 42 7 60 9 18 1 70 8 115 14 46 7
95 14 110 16 16 2 44 6 63 9 19 4 49 8 65 10 17 2 57 8 90 14 33 6 78 14 100
17 22 3 112 19 200 35 88 16 174 31 190 34 17 3 73 15 125 26 52 11 107 23
122 25 16 3 58 12 95 21 38 9 79 18 93 20 14 3 90 21 170 40 80 20 152 37 160
39 42 9 233 59 290 75 36 10 124 35 195 55 72 20 195 57 275 82 80 25 180 55
223 68 42 13 82 27 87 30 6 3 18 8 27 10 10 2 101 33 203 68 915 320 1757 709
2618 1209 279 162 871 539 920 586 8 6 22 17 33 23 39 20 487 343 499 359 3 4
12 11 21 16 9 5 32 21 50 36 19 14 84 65 144 112 130 102 274 217 289 231 6 6
36 30 66 55 67 55 74 61 230 195 69 60 127 111 130 114 3 3 28 26 55 50 374
330 965 924 1245 1251 12 14 31 36 43 50 11 14 50 59 86 100 36 41 72 83 81
94 8 10 20 23 26 30 22 24 292 358 344 426 30 39 63 81 73 93 10 12 77 101
148 197 318 428 561 793 835 1250 64 107 127 212 140 233 14 20 21 37 18 37
-4 0 0 8 8 18 8 9 46 73 83 142 38 69 86 157 107 195 54 99 317 625 358 715
35 79 87 191 125 275 13 28 49 111 80 185 31 74 67 160 80 190 177 413 414
1104 570 1660 131 468 291 1188 349 1575 9 62 18 121 22 140 2 10 6 37 9 60 3
22 10 67 15 100 5 33 12 80 15 105 6 52 14 114 20 150 2 14 11 90 20 170 9 80
18 161 20 180 2 19 7 64 10 100 4 36 8 83 10 105 12 123 19 210 29 390 4 61 9
139 11 175 23 326 23 1209 0 1570 -1 19 -5 100 -10 180 -4 80 -8 152 -10 160
-2 8 -6 60 -10 115 -3 55 -8 111 -10 125 -2 14 -6 57 -10 95 -3 39 -8 86 -10
105 -2 19 -6 62 -10 95 -3 33 -7 76 -10 95 -3 19 -7 54 -10 78 -16 129 -24
191 -30 232 -2 14 -7 45 -10 70 -17 122 -44 298 -55 355 -5 28 -12 70 -15 94
-3 23 -7 46 -9 50 -2 3 -7 27 -10 53 -4 26 -8 53 -11 60 -2 7 -6 30 -9 51 -7
45 -51 267 -71 357 -54 238 -111 479 -151 630 -25 96 -47 182 -49 190 -1 8
-19 71 -40 140 -20 69 -38 132 -40 140 -1 8 -18 62 -36 120 -18 58 -34 110
-35 115 -4 21 -147 451 -159 480 -7 17 -23 59 -35 95 -12 36 -49 137 -82 225
-57 155 -67 179 -88 228 -5 12 -29 72 -54 132 -67 166 -179 429 -228 535 -25
52 -55 120 -69 150 -35 79 -298 607 -364 730 -75 140 -100 184 -177 320 -36
63 -75 131 -85 150 -24 42 -47 80 -193 320 -215 352 -518 798 -779 1145 -80
107 -282 367 -291 375 -3 3 -21 25 -40 50 -19 25 -37 47 -40 50 -3 3 -37 43
-75 90 -82 101 -313 371 -329 385 -6 6 -26 28 -45 50 -217 256 -897 938 -1171
1175 -14 12 -41 36 -60 53 -19 18 -64 57 -100 87 -36 30 -67 58 -70 61 -10 12
-391 327 -496 410 -146 115 -498 377 -624 464 -55 39 -106 75 -113 81 -14 12
-394 266 -501 335 -268 171 -727 438 -1036 603 -126 67 -582 294 -675 336 -27
13 -108 49 -178 81 -70 33 -130 59 -132 59 -3 0 -30 12 -62 26 -67 31 -87 39
-208 89 -49 21 -104 43 -121 51 -150 66 -592 227 -914 335 -710 236 -1487 430
-2175 544 -16 3 -46 8 -65 11 -19 4 -45 8 -57 9 -12 2 -34 6 -50 9 -15 3 -50
8 -78 12 -27 3 -70 10 -94 15 -24 5 -46 8 -48 5 -3 -2 -17 0 -33 4 -16 5 -57
11 -92 15 -35 4 -70 8 -78 10 -8 2 -44 6 -80 10 -36 4 -73 9 -82 10 -9 2 -48
7 -85 10 -37 4 -80 8 -94 11 -15 2 -57 6 -95 9 -38 3 -85 7 -104 10 -19 2 -69
7 -110 10 -41 3 -97 8 -125 11 -27 3 -81 7 -120 9 -101 5 -281 17 -345 22 -65
5 -1247 13 -1252 8z"/>
</g>
</svg>
